<svg aria-hidden="true" style="position: absolute; width: 0; height: 0; overflow: hidden;" version="1.1" xmlns="http://www.w3.org/2000/svg" xmlns:xlink="http://www.w3.org/1999/xlink">
<defs>
<symbol id="icon-telegram" viewBox="0 0 40 32">
<path fill="#fff" style="fill: var(--color1, #fff)" d="M16.206 20.75l-0.636 8.338c0.908 0 1.302-0.364 1.774-0.802l4.26-3.8 8.83 6.034c1.62 0.842 2.76 0.398 3.196-1.39l5.796-25.344 0.002-0.002c0.514-2.234-0.866-3.108-2.444-2.56l-34.064 12.174c-2.324 0.842-2.29 2.052-0.396 2.6l8.71 2.528 20.23-11.814c0.952-0.588 1.818-0.262 1.106 0.326l-16.364 13.714z"></path>
</symbol>
<symbol id="icon-facebook" viewBox="0 0 16 32">
<path fill="#fff" style="fill: var(--color1, #fff)" d="M14.266 15.97h-4.176v15.39h-6.328v-15.39h-3.008v-5.408h3.010v-3.499c-0.002-2.504 1.181-6.422 6.382-6.422l4.686 0.019v5.25h-3.4c-0.558 0-1.342 0.28-1.342 1.474v3.182h4.728l-0.554 5.403z"></path>
</symbol>
<symbol id="icon-github" viewBox="0 0 32 32">
<path fill="#fff" style="fill: var(--color1, #fff)" d="M16 0.941c-8.27 0-15.059 6.789-15.059 15.059 0 7.058 4.952 13.47 11.53 15.059v-4.982c-0.261 0.066-0.56 0.104-0.869 0.104-0.373 0-0.733-0.056-1.073-0.159l0.026 0.007c-0.89-0.262-1.613-0.856-2.15-1.76-0.342-0.578-0.949-1.203-1.581-1.157l-0.155-1.758c1.368-0.117 2.552 0.834 3.254 2.013 0.312 0.525 0.67 0.832 1.133 0.968 0.445 0.131 0.923 0.069 1.482-0.13 0.139-1.115 0.651-1.534 1.037-2.122v0c-3.922-0.586-5.485-2.666-6.106-4.309-0.822-2.181-0.381-4.906 1.074-6.627 0.029-0.034 0.080-0.122 0.059-0.182-0.667-2.013 0.146-3.68 0.176-3.856 0.77 0.227 0.894-0.229 3.342 1.258l0.422 0.254c0.178 0.106 0.122 0.045 0.298 0.032 1.022-0.277 2.099-0.43 3.16-0.445 1.069 0.014 2.139 0.166 3.203 0.456l0.138 0.014c-0.013-0.002 0.037-0.008 0.12-0.058 3.058-1.851 2.947-1.246 3.768-1.514 0.029 0.178 0.83 1.87 0.171 3.858-0.090 0.274 2.65 2.782 1.133 6.81-0.621 1.643-2.184 3.725-6.106 4.309v0c0.502 0.766 1.107 1.174 1.104 2.755v6.219c6.578-1.589 11.53-8 11.53-15.059-0.002-8.269-6.789-15.058-15.061-15.058v0z"></path>
</symbol>
</defs>
</svg>
